<svg width="22" height="22" viewBox="0 0 22 22" fill="none" xmlns="http://www.w3.org/2000/svg">
<circle cx="11" cy="11" r="11" fill="white"/>
<g clip-path="url(#clip0_3_159)">
<path opacity="0.2" d="M16.625 11V16.0625C16.625 16.2117 16.5657 16.3548 16.4602 16.4602C16.3548 16.5657 16.2117 16.625 16.0625 16.625H5.9375C5.78832 16.625 5.64524 16.5657 5.53975 16.4602C5.43426 16.3548 5.375 16.2117 5.375 16.0625V11H16.625Z" fill="#FF1203"/>
<path d="M17.1875 7.625H4.8125C4.50184 7.625 4.25 7.87684 4.25 8.1875V10.4375C4.25 10.7482 4.50184 11 4.8125 11H17.1875C17.4982 11 17.75 10.7482 17.75 10.4375V8.1875C17.75 7.87684 17.4982 7.625 17.1875 7.625Z" stroke="#FF1203" stroke-linecap="round" stroke-linejoin="round"/>
<path d="M16.625 11V16.0625C16.625 16.2117 16.5657 16.3548 16.4602 16.4602C16.3548 16.5657 16.2117 16.625 16.0625 16.625H5.9375C5.78832 16.625 5.64524 16.5657 5.53975 16.4602C5.43426 16.3548 5.375 16.2117 5.375 16.0625V11" stroke="#FF1203" stroke-linecap="round" stroke-linejoin="round"/>
<path d="M11 7.625V16.625" stroke="#FF1203" stroke-linecap="round" stroke-linejoin="round"/>
<path d="M14.4305 4.19446C15.0873 4.85118 15.1259 5.95649 14.4305 6.57243C13.2416 7.62501 11 7.62501 11 7.62501C11 7.62501 11 5.38345 12.0547 4.19446C12.6685 3.49907 13.7738 3.53774 14.4305 4.19446Z" stroke="#FF1203" stroke-linecap="round" stroke-linejoin="round"/>
<path d="M7.56946 4.19446C6.91274 4.85118 6.87407 5.95649 7.56946 6.57243C8.75845 7.62501 11 7.62501 11 7.62501C11 7.62501 11 5.38345 9.94532 4.19446C9.33149 3.49907 8.22618 3.53774 7.56946 4.19446Z" stroke="#FF1203" stroke-linecap="round" stroke-linejoin="round"/>
</g>
<defs>
<clipPath id="clip0_3_159">
<rect width="18" height="18" fill="white" transform="translate(2 2)"/>
</clipPath>
</defs>
</svg>
