<svg width="21" height="21" viewBox="0 0 21 21" fill="none" xmlns="http://www.w3.org/2000/svg">
<g clip-path="url(#clip0_1_44)">
<path d="M8.80408 12.0648L13.0431 7.82584" stroke="#FF3F03" stroke-linecap="round" stroke-linejoin="round"/>
<path d="M18.235 3.43848C18.2665 3.32692 18.2676 3.209 18.2383 3.09686C18.2091 2.98472 18.1504 2.8824 18.0685 2.80045C17.9865 2.71849 17.8842 2.65986 17.7721 2.63058C17.6599 2.60131 17.542 2.60245 17.4304 2.63388L1.77876 7.37993C1.65098 7.41599 1.53725 7.4902 1.45277 7.59263C1.36829 7.69506 1.31709 7.82084 1.30602 7.95315C1.29494 8.08546 1.32451 8.21801 1.39078 8.33306C1.45705 8.44811 1.55686 8.5402 1.67686 8.59701L8.80408 12.0648L12.2719 19.1912C12.3287 19.3112 12.4208 19.4111 12.5359 19.4773C12.6509 19.5436 12.7834 19.5732 12.9158 19.5621C13.0481 19.551 13.1738 19.4998 13.2763 19.4153C13.3787 19.3309 13.4529 19.2171 13.489 19.0893L18.235 3.43848Z" stroke="#FF3F03" stroke-linecap="round" stroke-linejoin="round"/>
</g>
<defs>
<clipPath id="clip0_1_44">
<rect width="20.8689" height="20.8689" fill="white"/>
</clipPath>
</defs>
</svg>
